<svg width="512" height="512" viewBox="0 0 512 512" fill="none" xmlns="http://www.w3.org/2000/svg">
<g clip-path="url(#clip0_1_2)">
<path d="M492.784 351.932C462.187 427.314 396.454 488.748 305.631 506.769C178.092 532.073 63.827 459.328 19.523 353.336C36.743 337.19 68.053 303.97 100.814 272.356C149.081 318.254 203.622 363.121 256.308 363.121C308.386 363.121 363.955 319.467 412.712 271.99C441.003 298.993 469.906 330.084 492.784 351.932ZM427.436 258.416C454.092 285.341 479.121 312.6 499.905 332.146C514.92 284.537 516.368 232.632 501.926 183.236C480.889 203.224 454.742 230.834 427.436 258.416V258.416ZM213.326 227.013V286.458L250.816 306.531C254.469 308.446 259.825 308.468 263.498 306.591L298.957 287.291V228.012L261.499 209.35C257.826 207.472 252.469 207.494 248.816 209.41L213.326 227.013V227.013ZM100.296 244.941C148.451 198.739 203.798 151.711 256.308 151.711C308.27 151.711 363.708 196.831 412.387 244.481C440.672 215.911 471.33 184.202 494.788 162.312C484.428 135.861 469.255 110.442 448.884 87.162C322.43 -57.356 87.828 -14.452 18.324 161.647C35.103 177.745 66.672 212.525 100.297 244.941H100.296ZM255.309 171.704C301.718 171.704 348.115 210.973 398.416 258.416C352.856 303.336 306.029 343.128 256.308 343.128C208.028 343.128 158.37 300.28 114.314 258.378C158.209 216.175 207.037 171.704 255.309 171.704V171.704ZM265.288 189.354C258.551 187.275 248.145 187.697 245.168 189.354C245.168 189.354 209.708 207.294 201.194 211.478C192.68 215.662 193.954 226.592 193.954 226.592L194.092 289.049C194.092 295.347 195.736 298.607 200.661 302.053L245.933 324.851C251.977 327.47 263.575 327.184 267.47 325.304L310.448 303.525C315.924 299.381 318.688 295.652 318.823 292.327V226.774C318.889 220.875 315.806 215.432 307.99 211.205L265.288 189.355V189.354ZM85.898 258.927C53.576 227.326 26.505 197.299 11.113 182.341C-4.697 234.511 -2.955 286.376 12.013 332.992C27.548 318.342 54.201 289.917 85.897 258.927H85.898Z" fill="white"/>
</g>
<defs>
<clipPath id="clip0_1_2">
<rect width="512" height="512" fill="white"/>
</clipPath>
</defs>
</svg>
